<svg width="32" height="32" viewBox="0 0 32 32" fill="none" xmlns="http://www.w3.org/2000/svg">
<path d="M23.4667 0H8.53333C3.8205 0 0 3.8205 0 8.53333V23.4667C0 28.1795 3.8205 32 8.53333 32H23.4667C28.1795 32 32 28.1795 32 23.4667V8.53333C32 3.8205 28.1795 0 23.4667 0Z" fill="black"/>
<path d="M27 16.2444C27 15.3399 26.9251 14.6799 26.763 13.9955H16.2245V18.0777H22.4104C22.2857 19.0921 21.6122 20.6199 20.1156 21.6465L20.0946 21.7832L23.4267 24.3129L23.6576 24.3355C25.7777 22.4166 27 19.5932 27 16.2444Z" fill="#4285F4"/>
<path d="M16.2244 27C19.255 27 21.7992 26.0221 23.6575 24.3355L20.1156 21.6466C19.1677 22.2944 17.8956 22.7466 16.2244 22.7466C13.2562 22.7466 10.737 20.8278 9.83891 18.1755L9.70727 18.1865L6.24252 20.8143L6.1972 20.9377C8.04299 24.531 11.8344 27 16.2244 27Z" fill="#34A853"/>
<path d="M9.83895 18.1756C9.60199 17.4911 9.46486 16.7577 9.46486 16C9.46486 15.2422 9.60199 14.5089 9.82648 13.8244L9.82021 13.6787L6.31203 11.0087L6.19725 11.0622C5.43651 12.5533 5 14.2278 5 16C5 17.7722 5.43651 19.4466 6.19725 20.9377L9.83895 18.1756Z" fill="#FBBC05"/>
<path d="M16.2244 9.2533C18.3321 9.2533 19.7539 10.1455 20.5645 10.8911L23.7323 7.86C21.7868 6.08778 19.255 5 16.2244 5C11.8344 5 8.04299 7.46887 6.1972 11.0622L9.82644 13.8244C10.737 11.1722 13.2562 9.2533 16.2244 9.2533Z" fill="#EB4335"/>
</svg>
